PathFileType	4	(X/Y/Z)	F:\MotionCapture\20160217\3\Generated_files\EMG_test01-Dynamic.trc
DataRate	CameraRate	NumFrames	NumMarkers	Units	OrigDataRate	OrigDataStartFrame	OrigNumFrames
120.00	120.00	       6	39	mm	120.00	1	       701
Frame#	Time	Top.Head			Front.Head			Rear.Head			R.Shoulder			R.Offset			R.Elbow			R.Wrist			L.Shoulder			L.Elbow			L.Wrist			R.ASIS			L.ASIS			V.Sacral			R.Thigh			R.Knee			R.Shank			R.Ankle			R.Heel			R.Toe			L.Thigh			L.Knee			L.Shank			L.Ankle			L.Heel			L.Toe			R1			R2			R3			R4			R5			R6			R7			L1			L2			L3			L4			L5			L6			L7			V_Mid_ASIS			V_Pelvis_Origin			V_R.Hip_JC			V_L.Hip_JC			V_R.Knee_JC			V_L.Knee_JC			V_R.Ankle_JC			V_L.Ankle_JC			V_Mid_Hip			V_Mid_Shoulder			V_R.Hand			V_L.Hand			V_R.Toe_Offset_Static			V_L.Toe_Offset_Static			V_R.Toe_Offset			V_L.Toe_Offset			
		X1	Y1	Z1	X2	Y2	Z2	X3	Y3	Z3	X4	Y4	Z4	X5	Y5	Z5	X6	Y6	Z6	X7	Y7	Z7	X8	Y8	Z8	X9	Y9	Z9	X10	Y10	Z10	X11	Y11	Z11	X12	Y12	Z12	X13	Y13	Z13	X14	Y14	Z14	X15	Y15	Z15	X16	Y16	Z16	X17	Y17	Z17	X18	Y18	Z18	X19	Y19	Z19	X20	Y20	Z20	X21	Y21	Z21	X22	Y22	Z22	X23	Y23	Z23	X24	Y24	Z24	X25	Y25	Z25	X26	Y26	Z26	X27	Y27	Z27	X28	Y28	Z28	X29	Y29	Z29	X30	Y30	Z30	X31	Y31	Z31	X32	Y32	Z32	X33	Y33	Z33	X34	Y34	Z34	X35	Y35	Z35	X36	Y36	Z36	X37	Y37	Z37	X38	Y38	Z38	X39	Y39	Z39	

1	0.000																																																																																																																																																																						-3452.59619	88.28437	32.92051	-3499.46411	75.82266	30.30916	-3419.52515	480.24277	865.63696	-3547.74121	31.06740	31.20192	-3575.07275	302.69617	322.31311	-3584.61841	154.48325	50.67901	-3432.19727	80.79002	264.01144	-3537.72363	534.74500	1089.15637	-3558.74780	396.38477	39.96659	-3469.43555	332.09952	31.27863	-3515.27368	361.73282	39.15765	-3536.83960	388.32385	44.75663	-3504.89063	320.56018	41.15267	-3575.68848	381.29944	460.70453	-3521.23438	91.61774	949.21472	-3721.82300	295.91425	30.16274	-3438.10303	256.27869	98.68458	-3472.14014	328.10602	617.07465	-3657.99585	362.87277	55.33924	-3497.84961	104.26515	43.75921	-3565.85620	459.90872	1420.79785	
2	0.008																																																																																																																																																																						-3452.56372	88.37166	32.96227	-3499.39697	75.82452	30.22144	-3419.55542	479.30576	865.73431	-3548.79810	28.95241	30.24632	-3576.60815	302.14429	321.73593	-3584.65454	154.23448	50.51804	-3617.61328	53.24152	1421.20532	-3537.48926	534.33850	1089.09143	-3558.76685	396.33267	39.94955	-3469.45215	332.10638	31.35305	-3515.29810	361.87854	39.14046	-3504.49707	320.06100	41.09250	-3575.86572	380.98624	460.57629	-3537.92969	-77.23505	855.30933	-3520.34717	91.06793	948.87396	-3432.26758	81.00393	263.87360	-3536.81177	388.25873	44.87254	-3721.83081	296.07828	30.19734	-3438.11670	256.41959	98.57651	-3472.04639	327.82422	616.78564	-3658.07007	363.01474	55.50455	-3497.82861	104.27505	43.76561	
3	0.017																																																																																																																																																																						-3452.59326	88.32787	32.94592	-3499.47412	75.80746	30.24728	-3548.78931	29.13901	30.17938	-3577.74121	301.61493	321.39233	-3584.70728	154.48712	50.54785	-3565.28711	459.23773	1421.26477	-3558.79150	396.30768	39.90588	-3469.43237	332.08762	31.28681	-3515.34424	361.76688	39.00974	-3419.68433	478.41211	865.90826	-3505.21899	320.34418	41.19028	-3576.05493	380.92770	460.61914	-3520.27197	90.58534	948.85541	-3721.85278	295.92661	30.19356	-3432.22144	80.74517	264.01511	-3536.74487	388.03632	45.06390	-3471.95581	328.00363	616.73383	-3658.10742	362.85913	55.37165	-3497.82129	104.28062	43.76889	-3585.13159	246.92184	1730.64832	-3464.96924	241.00096	1662.89404	-3438.07397	256.31882	98.67297	
4	0.025																																																																																																																																																																						-3452.55493	88.38960	32.83669	-3499.41113	75.80451	30.29779	-3619.16528	52.65712	1420.89160	-3548.80713	28.95191	30.25039	-3577.64941	301.63226	321.53525	-3584.63672	154.44147	50.47398	-3739.22729	184.98093	915.17554	-3565.02368	458.75516	1421.14551	-3432.28247	81.00041	263.89078	-3558.74390	396.22592	39.59545	-3469.44629	332.07254	31.29493	-3515.32593	361.72266	39.07247	-3419.89185	476.92456	866.16772	-3505.26978	320.35754	41.26956	-3576.25879	380.72531	460.61951	-3536.85840	388.14780	44.86887	-3537.31445	533.11139	1088.77771	-3438.14063	256.36414	98.61821	-3721.85938	295.92609	30.22017	-3471.93433	327.84985	616.62103	-3658.11572	362.79153	55.44632	-3497.77344	104.33944	43.67036	-3584.58594	246.18591	1730.55371	-3464.69580	239.88258	1662.88806	
5	0.033																																																																																																																																																																						-3452.51050	88.45780	32.87479	-3499.43311	75.89864	30.33687	-3578.12427	301.39758	321.50027	-3584.66821	154.52094	50.34807	-3564.89478	458.09921	1421.22937	-3558.79541	396.28928	39.87547	-3469.46753	332.11697	31.35071	-3515.31421	361.69043	39.05946	-3505.21851	320.30060	41.26860	-3576.34033	380.67105	460.68936	-3547.70337	31.00798	31.24410	-3537.23999	532.48651	1088.75037	-3721.85791	295.87912	30.24816	-3432.37817	81.24716	263.71893	-3536.87402	388.09741	44.95388	-3419.91309	474.44232	865.82080	-3471.94067	327.84262	616.49591	-3658.07642	362.62253	55.28832	-3497.89966	104.25877	43.75227	-3583.89185	245.89716	1730.84436	-3464.19067	239.51392	1662.88379	-3438.15942	256.44534	98.56548	
6	0.042																																																																																																																																																																						-3452.54712	88.44711	32.86119	-3499.42212	75.84720	30.25243	-3615.90869	50.13081	1420.67786	-3570.19312	140.01111	227.23804	-3577.93579	301.40097	321.72638	-3584.75049	154.45450	50.40189	-3536.76807	388.10422	45.04288	-3564.65967	457.44485	1421.34241	-3474.66968	106.78461	571.35297	-3558.82227	396.32538	39.85437	-3469.45947	332.19382	31.34524	-3515.41479	361.77328	39.12645	-3438.13232	256.36536	98.55865	-3505.25171	320.43784	41.21256	-3576.53198	380.55493	460.82388	-3512.43506	414.61859	-3.54448	-3548.77246	29.07967	30.21203	-3537.22705	531.82208	1088.62012	-3721.89673	295.78671	30.23397	-3420.17212	473.31241	865.38000	-3471.95801	327.83282	616.44824	-3658.13843	362.80469	55.39673	-3497.83716	104.32041	43.69603	-3583.58130	245.95851	1730.88220	-3463.53979	238.98639	1662.93250	
